<?xml version="1.0" encoding="UTF-8"?>
<svg version="1.1" xmlns="http://www.w3.org/2000/svg" width="200" height="200">
<path d="M0 0 C4.62 0 9.24 0 14 0 C14.99 1.98 15.98 3.96 17 6 C19.64 4.02 22.28 2.04 25 0 C32.45776113 5.57257191 39.56197268 11.29712978 46.39453125 17.63671875 C49.5926371 20.53754939 52.93775819 23.20141502 56.33203125 25.8671875 C59.46357117 28.37058544 62.51306671 30.9602934 65.5625 33.5625 C73.24433131 41.42329624 73.24433131 41.42329624 82 46 C82.07413521 40.92801112 82.12859451 35.85633732 82.16479492 30.78393555 C82.17988516 29.05829373 82.20035975 27.33269028 82.22631836 25.60717773 C82.26269209 23.12734512 82.27972359 20.64801936 82.29296875 18.16796875 C82.31619453 17.01001045 82.31619453 17.01001045 82.33988953 15.82865906 C82.376528 11.67171084 82.376528 11.67171084 80.609375 8.02148438 C78.62634161 6.76283576 77.14592797 6.50376459 74.8125 6.3125 C73.554375 6.209375 72.29625 6.10625 71 6 C71 4.02 71 2.04 71 0 C84.86 0 98.72 0 113 0 C113 1.98 113 3.96 113 6 C109.7 6.66 106.4 7.32 103 8 C102.98786972 9.42795143 102.98786972 9.42795143 102.97549438 10.88475037 C102.89744332 19.92999336 102.80956485 28.97509673 102.71247292 38.02015591 C102.66288191 42.66843724 102.6165542 47.31669982 102.578125 51.96508789 C102.54079527 56.46506934 102.49431843 60.96487785 102.44193649 65.46470833 C102.42364205 67.16714454 102.40844605 68.86961745 102.39665604 70.57211113 C102.33478323 79.21124037 102.07054235 87.74791567 101.07958984 96.33618164 C101.00008402 97.02751662 100.92057819 97.7188516 100.8386631 98.43113613 C99.51912561 108.80553413 95.62456473 116.78722776 87.33203125 123.3125 C80.21642632 127.58500451 68.40619039 129.10165395 60.3125 127.375 C56.23950913 125.68432454 53.20260622 123.96978605 50.8671875 120.14453125 C49.33655574 116.35932027 49.84344157 112.85291358 51 109 C52.78783718 106.25947449 53.96787183 105.65388809 57 104 C59.92930021 103.64016274 62.24580109 103.94520042 65 105 C68.31372743 107.81666831 68.93817388 109.28281701 69.3125 113.625 C69 117 69 117 68 120 C71.4757403 119.68046665 74.71643766 119.21279964 78 118 C80.22285073 114.73073554 80.22285073 114.73073554 81 111 C81.226875 110.195625 81.45375 109.39125 81.6875 108.5625 C81.790625 108.046875 81.89375 107.53125 82 107 C81.47277344 106.78214844 80.94554687 106.56429687 80.40234375 106.33984375 C77.09752087 104.49666611 74.39127197 102.04763319 71.5625 99.5625 C70.30890123 98.4749059 69.05498777 97.38767443 67.80078125 96.30078125 C67.16736816 95.74986816 66.53395508 95.19895508 65.88134766 94.63134766 C63.02098436 92.15107936 60.13910277 89.69668997 57.25 87.25 C56.45505127 86.57662598 56.45505127 86.57662598 55.64404297 85.88964844 C50.83635709 81.83339597 45.94081296 77.89242375 41 74 C41.45294865 75.75140143 41.91258748 77.50107344 42.375 79.25 C42.63023438 80.22453125 42.88546875 81.1990625 43.1484375 82.203125 C44.22364027 85.76966711 44.22364027 85.76966711 46 89 C47.93981618 89.90609992 47.93981618 89.90609992 50.125 90.25 C52.043125 90.62125 52.043125 90.62125 54 91 C55.125 94.75 55.125 94.75 54 97 C40.8 97 27.6 97 14 97 C14 95.02 14 93.04 14 91 C18.95 90.505 18.95 90.505 24 90 C23.42389687 84.45044957 21.97901452 79.73970503 19.9375 74.5625 C19.65583984 73.83095703 19.37417969 73.09941406 19.08398438 72.34570312 C18.39586753 70.56126454 17.69885394 68.78026095 17 67 C16.40574219 67.54527344 15.81148437 68.09054688 15.19921875 68.65234375 C10.63869371 72.8014995 6.02705109 76.85103512 1.25 80.75 C0.34121094 81.49507813 -0.56757812 82.24015625 -1.50390625 83.0078125 C-2.98160164 84.1871938 -4.48225583 85.34008792 -6.02734375 86.4296875 C-7.898001 87.70353358 -7.898001 87.70353358 -10 90 C-10.50196294 93.71073505 -10.50196294 93.71073505 -10 97 C-10.54785156 96.92136719 -11.09570312 96.84273438 -11.66015625 96.76171875 C-21.25854856 96.46518305 -26.73804224 103.34554645 -33.25976562 109.46728516 C-35.68689583 111.60498485 -38.25525544 113.29505898 -41 115 C-41.52650879 107.33727208 -41.82287403 99.67838824 -42 92 C-42.02761414 90.87002594 -42.02761414 90.87002594 -42.05578613 89.71722412 C-42.16991738 84.68229992 -42.21294233 79.65219967 -42.18844604 74.61602783 C-42.18781857 72.92238114 -42.2045076 71.22863399 -42.23904419 69.53533936 C-42.4926631 55.95011484 -42.4926631 55.95011484 -38.93115234 51.29711914 C-36.38744302 49.25844982 -33.8212506 47.6256846 -31 46 C-29.77216749 45.02646785 -28.56531348 44.02531765 -27.390625 42.98828125 C-26.86339844 42.54033203 -26.33617187 42.09238281 -25.79296875 41.63085938 C-25.28378906 41.19580078 -24.77460937 40.76074219 -24.25 40.3125 C-22.68296354 38.97840139 -21.1154697 37.64490531 -19.54492188 36.31494141 C-18.47260114 35.40224869 -17.40660524 34.48209318 -16.34570312 33.55615234 C-12.21791461 30 -12.21791461 30 -10 30 C-9.73932739 29.1020874 -9.73932739 29.1020874 -9.47338867 28.18603516 C-7.60534633 21.84463609 -5.5228165 15.60449326 -3.3125 9.375 C-2.99216797 8.46621094 -2.67183594 7.55742188 -2.34179688 6.62109375 C-1.56326992 4.41333075 -0.78193561 2.20655804 0 0 Z " fill="#BC8C98" transform="translate(62,34)"/>
<path d="M0 0 C4.62 0 9.24 0 14 0 C14.33233643 1.01441162 14.66467285 2.02882324 15.00708008 3.07397461 C19.36789674 16.308183 24.01289366 29.43644641 28.6875 42.5625 C29.82960546 45.77253968 30.97118472 48.98276418 32.11177063 52.19334412 C32.81425908 54.17045872 33.51763668 56.14725772 34.22209167 58.12367249 C35.98801641 63.09077763 37.70902878 68.06803559 39.35224915 73.0771637 C40.29879593 75.88697015 41.37673312 78.63163665 42.5 81.375 C43.10328125 82.87160156 43.10328125 82.87160156 43.71875 84.3984375 C44.93347047 86.86491261 45.83950185 88.33176725 48 90 C51.10839021 90.7269226 51.10839021 90.7269226 54 91 C55.125 94.75 55.125 94.75 54 97 C40.8 97 27.6 97 14 97 C14 95.02 14 93.04 14 91 C18.95 90.505 18.95 90.505 24 90 C23.42389687 84.45044957 21.97901452 79.73970503 19.9375 74.5625 C19.65583984 73.83095703 19.37417969 73.09941406 19.08398438 72.34570312 C18.39586753 70.56126454 17.69885394 68.78026095 17 67 C16.40574219 67.54527344 15.81148437 68.09054688 15.19921875 68.65234375 C10.63869371 72.8014995 6.02705109 76.85103512 1.25 80.75 C0.34121094 81.49507813 -0.56757812 82.24015625 -1.50390625 83.0078125 C-2.98160164 84.1871938 -4.48225583 85.34008792 -6.02734375 86.4296875 C-7.898001 87.70353358 -7.898001 87.70353358 -10 90 C-10.50196294 93.71073505 -10.50196294 93.71073505 -10 97 C-10.54785156 96.92136719 -11.09570312 96.84273438 -11.66015625 96.76171875 C-21.25854856 96.46518305 -26.73804224 103.34554645 -33.25976562 109.46728516 C-35.68689583 111.60498485 -38.25525544 113.29505898 -41 115 C-41.52650879 107.33727208 -41.82287403 99.67838824 -42 92 C-42.02761414 90.87002594 -42.02761414 90.87002594 -42.05578613 89.71722412 C-42.16991738 84.68229992 -42.21294233 79.65219967 -42.18844604 74.61602783 C-42.18781857 72.92238114 -42.2045076 71.22863399 -42.23904419 69.53533936 C-42.4926631 55.95011484 -42.4926631 55.95011484 -38.93115234 51.29711914 C-36.38744302 49.25844982 -33.8212506 47.6256846 -31 46 C-29.77216749 45.02646785 -28.56531348 44.02531765 -27.390625 42.98828125 C-26.86339844 42.54033203 -26.33617187 42.09238281 -25.79296875 41.63085938 C-25.28378906 41.19580078 -24.77460937 40.76074219 -24.25 40.3125 C-22.68296354 38.97840139 -21.1154697 37.64490531 -19.54492188 36.31494141 C-18.47260114 35.40224869 -17.40660524 34.48209318 -16.34570312 33.55615234 C-12.21791461 30 -12.21791461 30 -10 30 C-9.73932739 29.1020874 -9.73932739 29.1020874 -9.47338867 28.18603516 C-7.60534633 21.84463609 -5.5228165 15.60449326 -3.3125 9.375 C-2.99216797 8.46621094 -2.67183594 7.55742188 -2.34179688 6.62109375 C-1.56326992 4.41333075 -0.78193561 2.20655804 0 0 Z " fill="#E5E0DF" transform="translate(62,34)"/>
<path d="M0 0 C13.86 0 27.72 0 42 0 C42 1.98 42 3.96 42 6 C38.7 6.66 35.4 7.32 32 8 C31.99191315 8.95196762 31.98382629 9.90393524 31.97549438 10.88475037 C31.89744332 19.92999336 31.80956485 28.97509673 31.71247292 38.02015591 C31.66288191 42.66843724 31.6165542 47.31669982 31.578125 51.96508789 C31.54079527 56.46506934 31.49431843 60.96487785 31.44193649 65.46470833 C31.42364205 67.16714454 31.40844605 68.86961745 31.39665604 70.57211113 C31.33478323 79.21124037 31.07054235 87.74791567 30.07958984 96.33618164 C29.96033111 97.37318411 29.96033111 97.37318411 29.8386631 98.43113613 C28.51912561 108.80553413 24.62456473 116.78722776 16.33203125 123.3125 C9.21642632 127.58500451 -2.59380961 129.10165395 -10.6875 127.375 C-14.76049087 125.68432454 -17.79739378 123.96978605 -20.1328125 120.14453125 C-21.66344426 116.35932027 -21.15655843 112.85291358 -20 109 C-18.21216282 106.25947449 -17.03212817 105.65388809 -14 104 C-11.07069979 103.64016274 -8.75419891 103.94520042 -6 105 C-2.68627257 107.81666831 -2.06182612 109.28281701 -1.6875 113.625 C-2 117 -2 117 -3 120 C-1.41253739 119.87881965 0.1706381 119.70084371 1.75 119.5 C2.63171875 119.4071875 3.5134375 119.314375 4.421875 119.21875 C7.87262986 117.58748407 8.57385478 115.72821053 10.16667366 112.35627174 C11.61759654 108.253715 11.54795111 104.27208405 11.50170898 99.9597168 C11.50711197 98.98801041 11.51251495 98.01630402 11.51808167 97.01515198 C11.53051751 93.82619107 11.51411794 90.63814168 11.49609375 87.44921875 C11.49624879 85.22581434 11.49773867 83.00240966 11.50050354 80.77900696 C11.50188501 76.13143898 11.48936631 71.48418058 11.46655273 66.83666992 C11.43808627 60.87330229 11.44093129 54.91044555 11.45364285 48.9470396 C11.46058688 44.36175653 11.4528267 39.77659215 11.44038582 35.19132423 C11.43586473 32.9916409 11.43554023 30.79194486 11.43945122 28.59226036 C11.44235298 25.52567613 11.42590873 22.4598048 11.40405273 19.39331055 C11.41080521 18.02573105 11.41080521 18.02573105 11.41769409 16.63052368 C11.40778946 15.79654556 11.39788483 14.96256744 11.38768005 14.10331726 C11.38403521 13.01689957 11.38403521 13.01689957 11.38031673 11.90853405 C10.88845842 9.44025365 9.94579584 8.54785172 8 7 C5.95899762 6.42982192 5.95899762 6.42982192 3.8125 6.3125 C1.9253125 6.1578125 1.9253125 6.1578125 0 6 C0 4.02 0 2.04 0 0 Z " fill="#E4DFDE" transform="translate(133,34)"/>
<path d="M0 0 C-0.76026554 4.90767502 -2.49317214 9.39729443 -4.203125 14.03515625 C-4.52279236 14.90965927 -4.84245972 15.78416229 -5.17181396 16.68516541 C-5.84926976 18.53579269 -6.52853183 20.38575962 -7.20947266 22.23510742 C-8.23684962 25.02676689 -9.25754846 27.82079774 -10.27734375 30.61523438 C-20.33458773 58.09391719 -20.33458773 58.09391719 -24 61 C-27.1875 61.6875 -27.1875 61.6875 -30 62 C-30 63.32 -30 64.64 -30 66 C-20.43 66 -10.86 66 -1 66 C-1 64.68 -1 63.36 -1 62 C-1.62648438 62.02320313 -2.25296875 62.04640625 -2.8984375 62.0703125 C-3.71570313 62.08835938 -4.53296875 62.10640625 -5.375 62.125 C-6.18710937 62.14820313 -6.99921875 62.17140625 -7.8359375 62.1953125 C-10 62 -10 62 -12 60 C-11.66831891 53.74781146 -9.51305897 48.01057001 -7.5 42.125 C-7.17902344 41.16335937 -6.85804687 40.20171875 -6.52734375 39.2109375 C-4.14060834 32.14060834 -4.14060834 32.14060834 -3 31 C-0.78144736 30.91216458 1.43988496 30.89305391 3.66015625 30.90234375 C4.65685585 30.90446617 4.65685585 30.90446617 5.6736908 30.90663147 C7.80333899 30.91224482 9.93288339 30.92479946 12.0625 30.9375 C13.50325369 30.94251329 14.94400903 30.94707649 16.38476562 30.95117188 C19.92321102 30.96221855 23.46159539 30.97949208 27 31 C27.62011719 33.35253906 27.62011719 33.35253906 28 36 C26.078125 38.359375 26.078125 38.359375 23.25 40.75 C22.75282471 41.17756592 22.25564941 41.60513184 21.7434082 42.0456543 C20.17739422 43.38306029 18.5918879 44.69354732 17 46 C15.52853516 47.22396484 15.52853516 47.22396484 14.02734375 48.47265625 C6.72637835 54.4881697 6.72637835 54.4881697 3.9765625 56.42578125 C2.10277272 57.70307646 2.10277272 57.70307646 0 60 C-0.50196294 63.71073505 -0.50196294 63.71073505 0 67 C-0.54785156 66.92136719 -1.09570312 66.84273438 -1.66015625 66.76171875 C-11.25854856 66.46518305 -16.73804224 73.34554645 -23.25976562 79.46728516 C-25.68689583 81.60498485 -28.25525544 83.29505898 -31 85 C-31.52650879 77.33727208 -31.82287403 69.67838824 -32 62 C-32.01840942 61.24668396 -32.03681885 60.49336792 -32.05578613 59.71722412 C-32.16991738 54.68229992 -32.21294233 49.65219967 -32.18844604 44.61602783 C-32.18781857 42.92238114 -32.2045076 41.22863399 -32.23904419 39.53533936 C-32.4926631 25.95011484 -32.4926631 25.95011484 -28.93115234 21.29711914 C-26.38744302 19.25844982 -23.8212506 17.6256846 -21 16 C-19.77216749 15.02646785 -18.56531348 14.02531765 -17.390625 12.98828125 C-16.86339844 12.54033203 -16.33617187 12.09238281 -15.79296875 11.63085938 C-15.28378906 11.19580078 -14.77460937 10.76074219 -14.25 10.3125 C-12.68296354 8.97840139 -11.1154697 7.64490531 -9.54492188 6.31494141 C-8.47260114 5.40224869 -7.40660524 4.48209318 -6.34570312 3.55615234 C-2.21791461 0 -2.21791461 0 0 0 Z " fill="#BB8B97" transform="translate(52,64)"/>
<path d="M0 0 C-0.76026554 4.90767502 -2.49317214 9.39729443 -4.203125 14.03515625 C-4.52279236 14.90965927 -4.84245972 15.78416229 -5.17181396 16.68516541 C-5.84926976 18.53579269 -6.52853183 20.38575962 -7.20947266 22.23510742 C-8.23684962 25.02676689 -9.25754846 27.82079774 -10.27734375 30.61523438 C-20.46047671 58.43787458 -20.46047671 58.43787458 -24 61 C-27.1875 61.6875 -27.1875 61.6875 -30 62 C-30.09908128 56.8222407 -30.17156806 51.64503653 -30.21972656 46.46655273 C-30.23980786 44.70603825 -30.26707879 42.94559018 -30.30175781 41.18530273 C-30.35043112 38.65071198 -30.37300305 36.11700505 -30.390625 33.58203125 C-30.41127014 32.79850784 -30.43191528 32.01498444 -30.45318604 31.2077179 C-30.45471856 27.45208686 -30.1806023 25.27953095 -28.12182617 22.09301758 C-25.86153603 19.86341599 -23.55316857 17.84506266 -21.0625 15.875 C-17.82017786 13.28376411 -14.60588482 10.68142422 -11.4609375 7.97265625 C-10.8743335 7.46814941 -10.28772949 6.96364258 -9.68334961 6.44384766 C-8.53263861 5.45099535 -7.38493191 4.45464882 -6.24047852 3.45458984 C-2.22042361 0 -2.22042361 0 0 0 Z " fill="#BB8D98" transform="translate(52,64)"/>
<path d="M0 0 C1.28162643 3.8448793 0.4614169 5.3233148 -0.8359375 9.12890625 C-1.24070313 10.32837891 -1.64546875 11.52785156 -2.0625 12.76367188 C-2.49993383 14.02997078 -2.93743459 15.29624656 -3.375 16.5625 C-3.80547937 17.83241414 -4.23517615 19.10259384 -4.6640625 20.37304688 C-7.80290179 29.60580357 -7.80290179 29.60580357 -9 32 C-0.09 32 8.82 32 18 32 C18.495 30.515 18.495 30.515 19 29 C19 31.31 19 33.62 19 36 C9.43 36.33 -0.14 36.66 -10 37 C-11.340625 40.856875 -12.68125 44.71375 -14.0625 48.6875 C-14.48926025 49.89494873 -14.91602051 51.10239746 -15.35571289 52.34643555 C-15.6830542 53.308479 -16.01039551 54.27052246 -16.34765625 55.26171875 C-16.85824585 56.73064575 -16.85824585 56.73064575 -17.37915039 58.22924805 C-18.04850319 61.21646194 -17.8227697 63.07951719 -17 66 C-14.03 66.33 -11.06 66.66 -8 67 C-8 68.32 -8 69.64 -8 71 C-17.57 71 -27.14 71 -37 71 C-37 69.68 -37 68.36 -37 67 C-35.1128125 66.7834375 -35.1128125 66.7834375 -33.1875 66.5625 C-30.93787286 66.08353025 -30.93787286 66.08353025 -29 65 C-27.99080178 63.25621834 -27.99080178 63.25621834 -27.5 61.1015625 C-26.46157997 57.55389148 -25.3325307 54.1013424 -24.01953125 50.64453125 C-23.66391113 49.70270996 -23.30829102 48.76088867 -22.94189453 47.79052734 C-22.56919434 46.80777832 -22.19649414 45.8250293 -21.8125 44.8125 C-18.33830391 35.61626714 -14.93938849 26.3967343 -11.65161133 17.13208008 C-10.01886625 12.58288775 -8.27901652 8.26441741 -6 4 C-4.68 4 -3.36 4 -2 4 C-1.34 2.68 -0.68 1.36 0 0 Z " fill="#F0E8E7" transform="translate(59,59)"/>
<path d="M0 0 C2.85372952 3.34014303 4.09843115 6.66390201 5.48046875 10.8125 C5.69818436 11.46323486 5.91589996 12.11396973 6.14021301 12.78442383 C6.59670671 14.15488071 7.04949581 15.52657653 7.4987793 16.89941406 C8.18630559 18.99635707 8.88813696 21.08811059 9.59179688 23.1796875 C10.0347152 24.51533978 10.476801 25.85126848 10.91796875 27.1875 C11.31781982 28.39792969 11.7176709 29.60835937 12.12963867 30.85546875 C13 34 13 34 13 38 C4.75 38 -3.5 38 -12 38 C-11.2225746 33.33544757 -10.20612591 29.12397465 -8.75 24.66796875 C-8.53182617 23.99075272 -8.31365234 23.31353668 -8.08886719 22.61579895 C-7.63029867 21.19575979 -7.16965489 19.77638927 -6.70703125 18.35766602 C-5.9970221 16.17835961 -5.29493938 13.99661126 -4.59375 11.81445312 C-1.13771338 1.13771338 -1.13771338 1.13771338 0 0 Z " fill="#B78C96" transform="translate(63,52)"/>
<path d="M0 0 C3.14429277 1.20419723 4.30017452 2.75957929 5.8359375 5.703125 C6.16264065 9.4928815 6.03784651 12.09739796 4.8359375 15.703125 C6.4425051 15.44691816 8.0461858 15.17256629 9.6484375 14.890625 C10.54175781 14.73980469 11.43507812 14.58898437 12.35546875 14.43359375 C15.01915006 13.64917107 16.09284072 12.81684701 17.8359375 10.703125 C18.4959375 12.683125 19.1559375 14.663125 19.8359375 16.703125 C21.1559375 16.703125 22.4759375 16.703125 23.8359375 16.703125 C22.8359375 19.703125 22.8359375 19.703125 21.19140625 20.6171875 C12.16525842 23.57711346 2.91041932 25.04635514 -6.1640625 21.703125 C-9.65703689 19.42509822 -11.60869408 17.54950908 -13.1640625 13.703125 C-13.49252993 9.87784807 -13.16366827 6.23539266 -11.03515625 2.97265625 C-7.56758381 -0.40043193 -4.51305386 -0.93373528 0 0 Z " fill="#E0DBDA" transform="translate(125.1640625,138.296875)"/>
<path d="M0 0 C0.66 0.33 1.32 0.66 2 1 C1.67 14.53 1.34 28.06 1 42 C10.57 42 20.14 42 30 42 C30 40.68 30 39.36 30 38 C29.34 38 28.68 38 28 38 C28.50563657 34.25828935 29.11293967 32.4428972 32 30 C32.515625 29.443125 33.03125 28.88625 33.5625 28.3125 C35 27 35 27 37 27 C37 26.34 37 25.68 37 25 C37.66 25 38.32 25 39 25 C39 24.34 39 23.68 39 23 C39.78375 22.9175 40.5675 22.835 41.375 22.75 C44.14044802 22.28474077 44.14044802 22.28474077 45.1875 20 C45.455625 19.34 45.72375 18.68 46 18 C46.66 17.67 47.32 17.34 48 17 C48 17.66 48 18.32 48 19 C48.66 19.33 49.32 19.66 50 20 C49.04738281 20.80824219 48.09476563 21.61648437 47.11328125 22.44921875 C45.84625894 23.52853405 44.57933719 24.60796741 43.3125 25.6875 C42.37374023 26.48317383 42.37374023 26.48317383 41.41601562 27.29492188 C34.15591715 32.68901779 34.15591715 32.68901779 30.6875 40.3125 C30.790625 41.199375 30.89375 42.08625 31 43 C30.45214844 42.92136719 29.90429688 42.84273437 29.33984375 42.76171875 C19.74145144 42.46518305 14.26195776 49.34554645 7.74023438 55.46728516 C5.31310417 57.60498485 2.74474456 59.29505898 0 61 C-1.39936074 40.63391907 -0.70251703 20.37936583 0 0 Z " fill="#97787D" transform="translate(21,88)"/>
<path d="M0 0 C4.31243058 5.33919977 6.3594332 10.67142472 7.6875 17.375 C7.93886719 18.62023437 8.19023438 19.86546875 8.44921875 21.1484375 C8.63097656 22.08945313 8.81273438 23.03046875 9 24 C9.66 24 10.32 24 11 24 C11 24.66 11 25.32 11 26 C11.99 26.33 12.98 26.66 14 27 C14 27.66 14 28.32 14 29 C14.7425 29.226875 15.485 29.45375 16.25 29.6875 C19.53658773 31.25609869 20.88302362 33.08003258 23 36 C25.72226766 38.72226766 28.36688418 39.78896139 32 41 C32.28875 41.804375 32.5775 42.60875 32.875 43.4375 C33.74277291 46.2122589 33.74277291 46.2122589 36.375 47 C37.24125 47.33 38.1075 47.66 39 48 C39.639375 48.804375 40.27875 49.60875 40.9375 50.4375 C42.87475502 53.20844659 42.87475502 53.20844659 46.125 54.5625 C49.17633856 56.08816928 49.91352462 56.84922139 51 60 C50.01 60.33 49.02 60.66 48 61 C45.89314612 59.48896194 44.04270625 57.97698573 42.125 56.25 C40.95462611 55.2276367 39.78404738 54.20550785 38.61328125 53.18359375 C38.01467285 52.65491699 37.41606445 52.12624023 36.79931641 51.58154297 C34.00116991 49.12205952 31.15837188 46.71642672 28.3125 44.3125 C27.77874756 43.8599585 27.24499512 43.40741699 26.69506836 42.94116211 C21.87354828 38.86425552 16.95984295 34.90741578 12 31 C11.34 31.33 10.68 31.66 10 32 C8.56991979 27.92693379 7.14592905 23.85180574 5.72753906 19.7746582 C5.24418208 18.38800757 4.75916689 17.00193379 4.27246094 15.61645508 C3.57310047 13.62470502 2.87973282 11.63095545 2.1875 9.63671875 C1.76855469 8.43748779 1.34960938 7.23825684 0.91796875 6.00268555 C0 3 0 3 0 0 Z " fill="#926F76" transform="translate(91,77)"/>
<path d="M0 0 C1.25159912 0.00523682 2.50319824 0.01047363 3.79272461 0.01586914 C4.78942421 0.01799156 4.78942421 0.01799156 5.80625916 0.02015686 C7.93590735 0.02577021 10.06545175 0.03832485 12.19506836 0.05102539 C13.63582205 0.05603868 15.07657739 0.06060188 16.51733398 0.06469727 C20.05577938 0.07574394 23.59416375 0.09301747 27.13256836 0.11352539 C27.62756836 2.58852539 27.62756836 2.58852539 28.13256836 5.11352539 C27.14256836 5.77352539 26.15256836 6.43352539 25.13256836 7.11352539 C24.14256836 6.45352539 23.15256836 5.79352539 22.13256836 5.11352539 C22.13256836 4.45352539 22.13256836 3.79352539 22.13256836 3.11352539 C14.54256836 3.11352539 6.95256836 3.11352539 -0.86743164 3.11352539 C-1.19743164 4.76352539 -1.52743164 6.41352539 -1.86743164 8.11352539 C-2.65583373 10.76991849 -3.46428882 13.41145594 -4.30493164 16.05102539 C-4.52213867 16.74131836 -4.7393457 17.43161133 -4.96313477 18.14282227 C-6.22670917 22.14603847 -7.52869855 26.13468611 -8.86743164 30.11352539 C-9.85743164 29.78352539 -10.84743164 29.45352539 -11.86743164 29.11352539 C-11.24136611 22.83547939 -9.4037504 17.19209991 -7.36743164 11.23852539 C-6.8859668 9.79606445 -6.8859668 9.79606445 -6.39477539 8.32446289 C-3.63323903 0.14384471 -3.63323903 0.14384471 0 0 Z " fill="#89696F" transform="translate(51.867431640625,94.886474609375)"/>
<path d="M0 0 C6.61519148 3.30759574 11.63820705 7.95106821 17 13 C16.01 13.66 15.02 14.32 14 15 C12.49428343 13.88266271 10.99555708 12.75589965 9.5 11.625 C8.6646875 10.99851562 7.829375 10.37203125 6.96875 9.7265625 C6.3190625 9.15679687 5.669375 8.58703125 5 8 C5 7.34 5 6.68 5 6 C2.62625139 5.66574265 2.62625139 5.66574265 0 6 C-2.00965774 7.59616005 -2.00965774 7.59616005 -3 10 C-2.39722247 15.59298497 0.39026858 20.48389841 2.72265625 25.52734375 C4.00047357 29.00128747 4.1640696 31.34812831 4 35 C4.94978897 37.15028304 4.94978897 37.15028304 6 39 C6 39.99 6 40.98 6 42 C5.01 41.67 4.02 41.34 3 41 C1.86499023 38.62670898 1.86499023 38.62670898 0.80859375 35.49609375 C0.42123047 34.36236328 0.03386719 33.22863281 -0.36523438 32.06054688 C-0.76033203 30.86494141 -1.15542969 29.66933594 -1.5625 28.4375 C-1.96146484 27.26896484 -2.36042969 26.10042969 -2.77148438 24.89648438 C-4.77162754 18.97619418 -6.60680414 13.09240783 -8 7 C-5.36 4.69 -2.72 2.38 0 0 Z " fill="#99767D" transform="translate(86,34)"/>
<path d="M0 0 C1.79721644 1.29399584 3.57780074 2.61353894 5.3046875 4 C8.03903189 6.13133245 8.03903189 6.13133245 11.5078125 7.875 C15.98711118 10.53749908 19.49600607 13.35312893 22 18 C24.23349691 27.57843172 23.38793747 37.80275801 22.96130371 47.56481934 C22.81676988 51.22436675 22.75387534 54.88528236 22.68359375 58.546875 C22.53448478 65.70125197 22.29633739 72.85008039 22 80 C21.67 79.01 21.34 78.02 21 77 C18.99983534 75.79117904 18.99983534 75.79117904 17 75 C18.485 74.01 18.485 74.01 20 73 C20.47647692 70.70338636 20.47647692 70.70338636 20.43237305 67.99951172 C20.45216721 66.95858368 20.47196136 65.91765564 20.49235535 64.84518433 C20.49874527 63.71807037 20.50513519 62.59095642 20.51171875 61.4296875 C20.52966995 60.27832306 20.54762115 59.12695862 20.56611633 57.94070435 C20.6204316 54.25217384 20.65418359 50.56377427 20.6875 46.875 C20.72065427 44.37888794 20.75514213 41.88279321 20.79101562 39.38671875 C20.87617017 33.25792992 20.94442986 27.12912457 21 21 C20.07078735 20.55297729 20.07078735 20.55297729 19.12280273 20.09692383 C16.76764819 18.87993598 15.03783881 17.45161446 13.0625 15.6875 C12.02029297 14.759375 12.02029297 14.759375 10.95703125 13.8125 C9.3431814 12.31783667 7.78782517 10.76027574 6.25 9.1875 C4.20618485 7.20045749 2.6154888 6.06556951 0 5 C0 3.35 0 1.7 0 0 Z " fill="#A37F89" transform="translate(123,64)"/>
<path d="M0 0 C2 2 2 2 2.046875 3.98828125 C1.49273438 8.32661897 0.75736931 11.96838805 -1 16 C-1.72513656 18.65357944 -2.35300715 21.32576289 -3 24 C-3.33 24.99 -3.66 25.98 -4 27 C-4.66 27 -5.32 27 -6 27 C-6.33 30.63 -6.66 34.26 -7 38 C-8.65 38 -10.3 38 -12 38 C-11.34862432 33.39302159 -10.19146125 29.07909817 -8.75 24.66796875 C-8.53182617 23.99075272 -8.31365234 23.31353668 -8.08886719 22.61579895 C-7.63029867 21.19575979 -7.16965489 19.77638927 -6.70703125 18.35766602 C-5.9970221 16.17835961 -5.29493938 13.99661126 -4.59375 11.81445312 C-1.13771338 1.13771338 -1.13771338 1.13771338 0 0 Z " fill="#8E6B72" transform="translate(63,52)"/>
<path d="M0 0 C7.59 0 15.18 0 23 0 C23 0.66 23 1.32 23 2 C23.99 2.33 24.98 2.66 26 3 C24.95125002 5.62187494 24.35068687 6.79371361 21.875 8.25 C21.25625 8.4975 20.6375 8.745 20 9 C20 5 20 5 22 2 C15.4 2 8.8 2 2 2 C0.45875619 6.9740141 -1.00223097 11.81458493 -1.9375 16.9375 C-2.57341995 20.0138307 -2.79115396 20.79729649 -5.125 23.0625 C-6.053125 23.5265625 -6.053125 23.5265625 -7 24 C-6.25134678 19.92485669 -5.19995051 15.98322291 -4.0625 12 C-3.72347656 10.80375 -3.38445313 9.6075 -3.03515625 8.375 C-2 5 -2 5 0 0 Z " fill="#A77D87" transform="translate(51,98)"/>
<path d="M0 0 C0.66 0 1.32 0 2 0 C1.52354792 4.28806873 0.34097516 6.26647487 -3 9 C-3.66 9 -4.32 9 -5 9 C-5 9.66 -5 10.32 -5 11 C-5.928125 11.12375 -5.928125 11.12375 -6.875 11.25 C-9.15303678 11.77341441 -9.15303678 11.77341441 -9.875 13.8125 C-11.93380407 17.81573014 -15.85854304 19.61951435 -20 21 C-20 21.66 -20 22.32 -20 23 C-22.33333333 23 -24.66666667 23 -27 23 C-19.08286995 16.08720224 -11.15163046 9.21695205 -2.9765625 2.609375 C-1.11761362 1.15156824 -1.11761362 1.15156824 0 0 Z " fill="#9C7780" transform="translate(50,64)"/>
<path d="M0 0 C3 3.75 3 3.75 3 6 C4.32 6 5.64 6 7 6 C6 9 6 9 4.35546875 9.9140625 C-3.74982338 12.57201415 -12.59211367 14.10197158 -21 12 C-21 11.67 -21 11.34 -21 11 C-15.39 11 -9.78 11 -4 11 C-4.33 9.68 -4.66 8.36 -5 7 C-7.31 6.67 -9.62 6.34 -12 6 C-12 5.67 -12 5.34 -12 5 C-10.95199219 4.83564453 -10.95199219 4.83564453 -9.8828125 4.66796875 C-8.51769531 4.43013672 -8.51769531 4.43013672 -7.125 4.1875 C-5.76761719 3.96126953 -5.76761719 3.96126953 -4.3828125 3.73046875 C-1.65587522 3.16948699 -1.65587522 3.16948699 0 0 Z " fill="#BEB7B6" transform="translate(142,149)"/>
<path d="M0 0 C0.33 0.66 0.66 1.32 1 2 C1.66 2.33 2.32 2.66 3 3 C1.57107422 4.21236328 1.57107422 4.21236328 0.11328125 5.44921875 C-1.15374106 6.52853405 -2.42066281 7.60796741 -3.6875 8.6875 C-4.31333984 9.21794922 -4.93917969 9.74839844 -5.58398438 10.29492188 C-12.84408285 15.68901779 -12.84408285 15.68901779 -16.3125 23.3125 C-16.209375 24.199375 -16.10625 25.08625 -16 26 C-16.33 26 -16.66 26 -17 26 C-17 24.35 -17 22.7 -17 21 C-17.66 21 -18.32 21 -19 21 C-18.49436343 17.25828935 -17.88706033 15.4428972 -15 13 C-14.484375 12.443125 -13.96875 11.88625 -13.4375 11.3125 C-12 10 -12 10 -10 10 C-10 9.34 -10 8.68 -10 8 C-9.34 8 -8.68 8 -8 8 C-8 7.34 -8 6.68 -8 6 C-6.824375 5.87625 -6.824375 5.87625 -5.625 5.75 C-2.86319488 5.27785697 -2.86319488 5.27785697 -1.75 3 C-1.5025 2.34 -1.255 1.68 -1 1 C-0.67 0.67 -0.34 0.34 0 0 Z " fill="#947077" transform="translate(68,105)"/>
<path d="M0 0 C0.33 0.99 0.66 1.98 1 3 C0.2733313 3.5101062 0.2733313 3.5101062 -0.46801758 4.03051758 C-2.74373186 6.95612508 -2.47949722 9.94990707 -2.51171875 13.51171875 C-2.52966995 14.23994339 -2.54762115 14.96816803 -2.56611633 15.71846008 C-2.62024213 18.04141471 -2.6541208 20.36416366 -2.6875 22.6875 C-2.72067125 24.26370051 -2.75516073 25.83987388 -2.79101562 27.41601562 C-2.8759693 31.27719536 -2.94276876 35.13831387 -3 39 C-3.66 39 -4.32 39 -5 39 C-5.12373184 34.08879777 -5.21439824 29.17850515 -5.2746582 24.26611328 C-5.29978078 22.59570511 -5.33388552 20.92540663 -5.37719727 19.25537109 C-5.43795399 16.8522638 -5.46623021 14.45061096 -5.48828125 12.046875 C-5.51408768 11.30193787 -5.5398941 10.55700073 -5.56648254 9.78948975 C-5.56762695 7.66699219 -5.56762695 7.66699219 -5 4 C-2.46948242 1.49707031 -2.46948242 1.49707031 0 0 Z " fill="#AD858E" transform="translate(27,85)"/>
<path d="M0 0 C4.31243058 5.33919977 6.3594332 10.67142472 7.6875 17.375 C7.93886719 18.62023437 8.19023438 19.86546875 8.44921875 21.1484375 C8.63097656 22.08945313 8.81273438 23.03046875 9 24 C9.66 24 10.32 24 11 24 C11 24.66 11 25.32 11 26 C11.99 26.33 12.98 26.66 14 27 C14 27.66 14 28.32 14 29 C14.66 29 15.32 29 16 29 C16 30.32 16 31.64 16 33 C15.071875 32.4740625 15.071875 32.4740625 14.125 31.9375 C13.42375 31.628125 12.7225 31.31875 12 31 C11.34 31.33 10.68 31.66 10 32 C8.56991979 27.92693379 7.14592905 23.85180574 5.72753906 19.7746582 C5.24418208 18.38800757 4.75916689 17.00193379 4.27246094 15.61645508 C3.57310047 13.62470502 2.87973282 11.63095545 2.1875 9.63671875 C1.76855469 8.43748779 1.34960938 7.23825684 0.91796875 6.00268555 C0 3 0 3 0 0 Z " fill="#816268" transform="translate(91,77)"/>
<path d="M0 0 C13.86 0 27.72 0 42 0 C42 1.98 42 3.96 42 6 C39.36 6 36.72 6 34 6 C34 5.67 34 5.34 34 5 C36.31 5 38.62 5 41 5 C41 3.68 41 2.36 41 1 C27.8 1 14.6 1 1 1 C1 2.32 1 3.64 1 5 C5.455 4.505 5.455 4.505 10 4 C10.99 5.485 10.99 5.485 12 7 C11.67 7.99 11.34 8.98 11 10 C10.67 9.525625 10.34 9.05125 10 8.5625 C6.90186733 6.14208385 3.87973208 6.31801083 0 6 C0 4.02 0 2.04 0 0 Z " fill="#746C6A" transform="translate(133,34)"/>
<path d="M0 0 C0.66 0 1.32 0 2 0 C3.45895418 3.78001766 4.85279123 7.47004844 5.9375 11.375 C6.80808155 14.3452194 7.82625265 16.93064453 9.0625 19.75 C11.27802503 25.10349914 11.78131532 30.24859295 12 36 C9.50239043 33.50239043 9.40227233 31.87103825 8.6875 28.4375 C7.32222408 22.61932414 5.1417935 18.0404313 2 13 C1.67 12.34 1.34 11.68 1 11 C1.66 11 2.32 11 3 11 C2.505 9.9275 2.01 8.855 1.5 7.75 C0.11346089 4.74583192 0 3.54065105 0 0 Z " fill="#A47B85" transform="translate(89,65)"/>
<path d="M0 0 C6.93352867 5.01661192 13.46202516 10.48630789 20 16 C19.34 16.33 18.68 16.66 18 17 C17.34 16.67 16.68 16.34 16 16 C15.67 16.66 15.34 17.32 15 18 C14.278125 17.2575 13.55625 16.515 12.8125 15.75 C10.10597086 13.00740933 10.10597086 13.00740933 7.3125 10.875 C5 9 5 9 3 6 C2.01 5.67 1.02 5.34 0 5 C0 3.35 0 1.7 0 0 Z " fill="#8B6A70" transform="translate(123,64)"/>
<path d="M0 0 C4.02833976 2.12606821 6.1918663 4.46718664 9 8 C11.32364913 9.4082722 13.40754825 10.13584942 16 11 C16 12.32 16 13.64 16 15 C11.92934428 14.41985904 9.46081038 12.2888244 6.3125 9.75 C5.33925781 8.98171875 4.36601563 8.2134375 3.36328125 7.421875 C0.83890287 4.83490872 0.27014547 3.54330332 0 0 Z " fill="#97727A" transform="translate(107,107)"/>
<path d="M0 0 C5.19210472 3.80304814 10.15609762 7.76158542 15 12 C14.01 12.66 13.02 13.32 12 14 C10.49428343 12.88266271 8.99555708 11.75589965 7.5 10.625 C6.24703125 9.68527344 6.24703125 9.68527344 4.96875 8.7265625 C4.3190625 8.15679687 3.669375 7.58703125 3 7 C3 6.34 3 5.68 3 5 C1.68 4.34 0.36 3.68 -1 3 C-0.67 2.01 -0.34 1.02 0 0 Z " fill="#86656B" transform="translate(88,35)"/>
<path d="M0 0 C0.66 0.33 1.32 0.66 2 1 C0.4411666 4.82622743 -1.95433582 7.25147379 -5 10 C-5.99 10.33 -6.98 10.66 -8 11 C-8 11.66 -8 12.32 -8 13 C-10.33333333 13 -12.66666667 13 -15 13 C-10.05 8.71 -5.1 4.42 0 0 Z " fill="#8E6B73" transform="translate(38,74)"/>
<path d="M0 0 C0.66 0.33 1.32 0.66 2 1 C2 5 2 5 -0.3125 7.5625 C-1.199375 8.366875 -2.08625 9.17125 -3 10 C-3.598125 10.598125 -4.19625 11.19625 -4.8125 11.8125 C-5.204375 12.204375 -5.59625 12.59625 -6 13 C-7.125 11.25 -7.125 11.25 -8 9 C-6.91049398 4.77816417 -3.28437253 2.5703785 0 0 Z " fill="#8D6D73" transform="translate(86,34)"/>
<path d="M0 0 C2.97 0 5.94 0 9 0 C9 1.65 9 3.3 9 5 C3.72 5 -1.56 5 -7 5 C-7 4.67 -7 4.34 -7 4 C-3.535 3.505 -3.535 3.505 0 3 C0 2.01 0 1.02 0 0 Z " fill="#F2EEED" transform="translate(129,155)"/>
<path d="M0 0 C6.27 0 12.54 0 19 0 C15.68908998 3.31091002 12.65992062 6.17663266 9 9 C9.66666667 6.33333333 10.33333333 3.66666667 11 1 C7.37 1 3.74 1 0 1 C0 0.67 0 0.34 0 0 Z " fill="#78585D" transform="translate(23,131)"/>
<path d="M0 0 C0.33 0.99 0.66 1.98 1 3 C3.64 2.67 6.28 2.34 9 2 C7.90904165 5.27287504 7.08205507 6.04460593 4.5 8.1875 C3.8709375 8.71730469 3.241875 9.24710938 2.59375 9.79296875 C1 11 1 11 0 11 C0 7.37 0 3.74 0 0 Z " fill="#B58893" transform="translate(22,133)"/>
<path d="M0 0 C0.33 0 0.66 0 1 0 C1.33 3.96 1.66 7.92 2 12 C2.66 12 3.32 12 4 12 C4.66 10.68 5.32 9.36 6 8 C6.66 9.32 7.32 10.64 8 12 C5.36 13.98 2.72 15.96 0 18 C0 12.06 0 6.12 0 0 Z " fill="#886A6F" transform="translate(21,131)"/>
<path d="M0 0 C2.97 0.33 5.94 0.66 9 1 C9.33 2.32 9.66 3.64 10 5 C6.04 5 2.08 5 -2 5 C-1.34 3.35 -0.68 1.7 0 0 Z " fill="#D5CECD" transform="translate(107,124)"/>
<path d="M0 0 C4.71551624 4.88392754 8 12.1601958 8 19 C7.01 18.67 6.02 18.34 5 18 C3.95222369 15.52665762 3.09838539 13.17972108 2.3125 10.625 C2.08755859 9.93921875 1.86261719 9.2534375 1.63085938 8.546875 C0.68529527 5.59234644 0 3.1196449 0 0 Z " fill="#8F6F75" transform="translate(84,57)"/>
<path d="M0 0 C0.66 0 1.32 0 2 0 C1.29138583 3.6847937 -0.3029394 6.67115036 -2 10 C-3.03204664 12.32093748 -4.01631743 14.65789864 -5 17 C-6.19935725 13.52348473 -5.80128318 11.30131722 -4.75 7.8125 C-4.49734375 6.93207031 -4.2446875 6.05164063 -3.984375 5.14453125 C-3.65953125 4.43683594 -3.3346875 3.72914062 -3 3 C-2.01 2.67 -1.02 2.34 0 2 C0 1.34 0 0.68 0 0 Z " fill="#856169" transform="translate(49,99)"/>
<path d="M0 0 C1.32 0 2.64 0 4 0 C3.63840082 3.25439263 2.9175455 4.07642124 0.4375 6.375 C-2.32125907 8.81196814 -2.32125907 8.81196814 -2.3125 12.3125 C-2.209375 13.199375 -2.10625 14.08625 -2 15 C-2.33 15 -2.66 15 -3 15 C-3 13.35 -3 11.7 -3 10 C-3.66 10 -4.32 10 -5 10 C-4.49380917 6.25418786 -3.84235245 4.48705839 -1 2 C-0.67 1.34 -0.34 0.68 0 0 Z " fill="#7E6267" transform="translate(54,116)"/>
<path d="M0 0 C1.29608947 0.93137592 2.58671632 1.8703566 3.875 2.8125 C4.59429687 3.33457031 5.31359375 3.85664062 6.0546875 4.39453125 C8 6 8 6 10 9 C8.1875 9.625 8.1875 9.625 6 10 C5.01 9.34 4.02 8.68 3 8 C3 7.34 3 6.68 3 6 C2.34 5.67 1.68 5.34 1 5 C0.375 2.4375 0.375 2.4375 0 0 Z " fill="#8F6E73" transform="translate(112,55)"/>
<path d="M0 0 C8.91 0 17.82 0 27 0 C27 1.65 27 3.3 27 5 C25.68 4.34 24.36 3.68 23 3 C23 2.34 23 1.68 23 1 C15.41 1 7.82 1 0 1 C0 0.67 0 0.34 0 0 Z " fill="#956D76" transform="translate(51,97)"/>
<path d="M0 0 C1.20796397 3.6238919 0.70132272 5.318379 -0.1875 9 C-0.42855469 10.051875 -0.66960938 11.10375 -0.91796875 12.1875 C-2.11710061 15.30437704 -3.17420856 16.31505604 -6 18 C-5.31092878 14.34056353 -4.43178734 10.77558041 -3.4375 7.1875 C-3.16808594 6.21167969 -2.89867187 5.23585938 -2.62109375 4.23046875 C-2.41613281 3.49441406 -2.21117187 2.75835937 -2 2 C-1.34 2 -0.68 2 0 2 C0 1.34 0 0.68 0 0 Z " fill="#AA7E88" transform="translate(50,104)"/>
<path d="M0 0 C1.76462683 3.08809695 2 4.23312136 2 8 C1 9 0 10 -1 11 C-2.20049407 14.10007201 -2.20049407 14.10007201 -3 17 C-3.33 17 -3.66 17 -4 17 C-3.45018084 10.95198929 -2.09570426 5.69398894 0 0 Z " fill="#AB818B" transform="translate(65,56)"/>
<path d="M0 0 C0 0.99 0 1.98 0 3 C-0.66 3.66 -1.32 4.32 -2 5 C-2.33 5.99 -2.66 6.98 -3 8 C-5.31 8 -7.62 8 -10 8 C-9.34 6.68 -8.68 5.36 -8 4 C-7.01 4.33 -6.02 4.66 -5 5 C-3.35 3.35 -1.7 1.7 0 0 Z " fill="#A9868D" transform="translate(52,118)"/>
<path d="M0 0 C2.53326372 3.13642175 4.47344816 6.25994799 6 10 C5.6875 12.875 5.6875 12.875 5 15 C3.25050228 12.37575342 2.34610019 10.44272784 1.375 7.5 C0.98441406 6.33984375 0.98441406 6.33984375 0.5859375 5.15625 C0 3 0 3 0 0 Z " fill="#8C6D75" transform="translate(91,77)"/>
<path d="M0 0 C0.93045933 2.55144824 1.08564091 3.74006478 0.22265625 6.359375 C-0.16019531 7.14828125 -0.54304688 7.9371875 -0.9375 8.75 C-1.50791016 9.94882813 -1.50791016 9.94882813 -2.08984375 11.171875 C-2.39019531 11.77515625 -2.69054688 12.3784375 -3 13 C-4.22419163 9.06204091 -3.48320272 6.83887763 -2 3 C-1.34 3 -0.68 3 0 3 C0 2.01 0 1.02 0 0 Z " fill="#A87C86" transform="translate(59,76)"/>
<path d="M0 0 C0.66 0 1.32 0 2 0 C2.5345256 1.24420647 3.05208611 2.49570936 3.5625 3.75 C3.85253906 4.44609375 4.14257812 5.1421875 4.44140625 5.859375 C5.07831803 8.30012784 4.80248831 9.6403655 4 12 C3.32332002 10.75539217 2.65905281 9.50403104 2 8.25 C1.62875 7.55390625 1.2575 6.8578125 0.875 6.140625 C0 4 0 4 0 0 Z " fill="#AE808B" transform="translate(89,65)"/>
<path d="M0 0 C2 2 2 2 2.125 4.625 C2.08375 5.40875 2.0425 6.1925 2 7 C1.01 7 0.02 7 -1 7 C-1.33 7.66 -1.66 8.32 -2 9 C-1.125 1.125 -1.125 1.125 0 0 Z " fill="#6E5B5D" transform="translate(63,52)"/>
<path d="M0 0 C1.98 0.66 3.96 1.32 6 2 C6 3.65 6 5.3 6 7 C5.67 6.34 5.34 5.68 5 5 C4.34 4.690625 3.68 4.38125 3 4.0625 C1 3 1 3 0 0 Z " fill="#9C7981" transform="translate(139,80)"/>
<path d="M0 0 C1.65 0 3.3 0 5 0 C3.35 1.65 1.7 3.3 0 5 C-0.66 4.67 -1.32 4.34 -2 4 C-1.34 2.68 -0.68 1.36 0 0 Z " fill="#8D6A70" transform="translate(72,102)"/>
<path d="M0 0 C0.33 0.66 0.66 1.32 1 2 C1.66 2.33 2.32 2.66 3 3 C0.525 4.485 0.525 4.485 -2 6 C-2 2 -2 2 0 0 Z " fill="#8F6A71" transform="translate(68,105)"/>
<path d="M0 0 C1.65 0.99 3.3 1.98 5 3 C4.01 3.495 4.01 3.495 3 4 C2.67 4.66 2.34 5.32 2 6 C0.68 4.68 -0.64 3.36 -2 2 C-1.34 2 -0.68 2 0 2 C0 1.34 0 0.68 0 0 Z " fill="#8C6970" transform="translate(103,48)"/>
<path d="M0 0 C1.27875 0.103125 2.5575 0.20625 3.875 0.3125 C4.95394531 0.39951172 4.95394531 0.39951172 6.0546875 0.48828125 C8 1 8 1 10 4 C7 4 7 4 4 3 C4 2.34 4 1.68 4 1 C2.68 0.67 1.36 0.34 0 0 Z " fill="#938A8A" transform="translate(119,138)"/>
<path d="M0 0 C2.5 1.375 2.5 1.375 5 3 C5 3.66 5 4.32 5 5 C3.35 4.67 1.7 4.34 0 4 C0 2.68 0 1.36 0 0 Z " fill="#A67D87" transform="translate(107,107)"/>
<path d="M0 0 C0.33 0 0.66 0 1 0 C1 2.31 1 4.62 1 7 C0.01 7 -0.98 7 -2 7 C-1.125 1.125 -1.125 1.125 0 0 Z " fill="#816469" transform="translate(53,83)"/>
</svg>
